<?xml version="1.0" encoding="UTF-8"?>
<svg width="174px" height="174px" viewBox="0 0 174 174" version="1.1" xmlns="http://www.w3.org/2000/svg" xmlns:xlink="http://www.w3.org/1999/xlink">
    <title>Group 71</title>
    <g id="Layouts" stroke="none" stroke-width="1" fill="none" fill-rule="evenodd">
        <g id="DetailView" transform="translate(-101.000000, -406.000000)" fill="#000000">
            <g id="Group-71" transform="translate(101.000000, 406.000000)">
                <path d="M0,0.0003 L0,21.0003 L0,41.9993 L42,41.9993 L42,0.0003 L0,0.0003 Z M6,5.9993 L36,5.9993 L36,21.0003 L36,36.0003 L6,36.0003 L6,5.9993 Z" id="Fill-1"></path>
                <polygon id="Fill-2" points="30 12 12 12 12 21 12 30 30 30"></polygon>
                <polygon id="Fill-3" points="120 60 126 60 126 48 120 48"></polygon>
                <polygon id="Fill-4" points="114 72 120 72 120 60 114 60"></polygon>
                <polygon id="Fill-5" points="0 114 6 114 6 108.001 0 108.001"></polygon>
                <polygon id="Fill-6" points="156 156 162 156 162 150 156 150"></polygon>
                <polygon id="Fill-7" points="144 90 150 90 150 84 144 84"></polygon>
                <polygon id="Fill-8" points="155.9997 77.9997 155.9997 90.0007 161.9997 90.0007 161.9997 101.9997 168.0007 101.9997 168.0007 90.0007 173.9997 90.0007 173.9997 83.9997 161.9997 83.9997 161.9997 77.9997"></polygon>
                <polygon id="Fill-9" points="144 114 156 114 156 108 144 108"></polygon>
                <polygon id="Fill-10" points="132 90 138 90 138 84 132 84"></polygon>
                <polygon id="Fill-11" points="168 150 173.999 150 173.999 144.001 168 144.001"></polygon>
                <polygon id="Fill-12" points="150 102 156 102 156 90 150 90"></polygon>
                <polygon id="Fill-13" points="155.9997 120 155.9997 132 161.9997 132 161.9997 138 155.9997 138 155.9997 144 168.0007 144 168.0007 132 173.9997 132 173.9997 126 161.9997 126 161.9997 120"></polygon>
                <polygon id="Fill-14" points="168.0003 102 168.0003 108 162.0003 108 162.0003 120 173.9993 120 173.9993 102"></polygon>
                <polygon id="Fill-15" points="54 102 54 96 48 96 48 108 60 108 60 102"></polygon>
                <polygon id="Fill-16" points="84 6 90 6 90 0.001 84 0.001"></polygon>
                <polygon id="Fill-17" points="120 12 126 12 126 6 120 6"></polygon>
                <polygon id="Fill-18" points="108 0.0003 108 12.0003 114 12.0003 114 5.9993 120 5.9993 120 0.0003"></polygon>
                <polygon id="Fill-19" points="54 0.0003 54 3.0003 54 5.9993 60 5.9993 60 0.0003"></polygon>
                <polygon id="Fill-20" points="12 120 18 120 18 114 12 114"></polygon>
                <polygon id="Fill-21" points="120 42 126 42 126 36 120 36"></polygon>
                <polygon id="Fill-22" points="72 138 78 138 78 132 72 132"></polygon>
                <polygon id="Fill-23" points="150 174 155.999 174 155.999 168 150 168"></polygon>
                <polygon id="Fill-24" points="0 90.0003 0 95.9993 6 95.9993 6 108.0003 12 108.0003 12 102.0003 18 102.0003 18 95.9993 12 95.9993 12 90.0003"></polygon>
                <polygon id="Fill-25" points="60 114 66 114 66 108 60 108"></polygon>
                <polygon id="Fill-26" points="48 78 54 78 54 72 36 72 36 78 42 78 42 84 36 84 36 90 54 90 54 84 48 84"></polygon>
                <polygon id="Fill-27" points="72 114 84 114 84 108 72 108"></polygon>
                <polygon id="Fill-28" points="102 138 108 138 108 132 102 132"></polygon>
                <path d="M132.0003,102 L132.0003,108 L126.0003,108 L126.0003,114 L119.9993,114 L119.9993,120 L108.0003,120 L108.0003,126 L114.0003,126 L114.0003,132 L119.9993,132 L119.9993,138 L108.0003,138 L108.0003,144 L119.9993,144 L119.9993,150 L132.0003,150 L132.0003,156 L137.9993,156 L137.9993,150 L144.0003,150 L144.0003,162 L137.9993,162 L137.9993,174 L144.0003,174 L144.0003,168 L150.0003,168 L150.0003,162 L155.9993,162 L155.9993,156 L150.0003,156 L150.0003,120 L137.9993,120 L137.9993,108 L144.0003,108 L144.0003,102 L132.0003,102 Z M126.0003,126 L144.0003,126 L144.0003,135 L144.0003,144 L126.0003,144 L126.0003,126 Z" id="Fill-29"></path>
                <polygon id="Fill-30" points="54 84 66 84 66 78 54 78"></polygon>
                <polygon id="Fill-31" points="66 108 72 108 72 102 66 102"></polygon>
                <polygon id="Fill-32" points="66 96 72 96 72 90 78 90 78 84 66 84 66 90 60 90 60 102 66 102"></polygon>
                <polygon id="Fill-33" points="108 120 108 114 84 114 84 126 90 126 90 132 102 132 102 120"></polygon>
                <polygon id="Fill-34" points="156 54 168 54 168 48 156 48"></polygon>
                <polygon id="Fill-35" points="168.0003 54.0003 168.0003 57.0003 168.0003 59.9993 173.9993 59.9993 173.9993 54.0003"></polygon>
                <polygon id="Fill-36" points="132 48 132 60 138 60 138 54 150 54 150 48"></polygon>
                <polygon id="Fill-37" points="126 66 126 72 120 72 120 78 114 78 114 84 132 84 132 78 138 78 138 72 144 72 144 60 138 60 138 66"></polygon>
                <polygon id="Fill-38" points="108 90 114 90 114 84 108 84"></polygon>
                <polygon id="Fill-39" points="132 102 132 96 126 96 126 90 114 90 114 102"></polygon>
                <polygon id="Fill-40" points="150.0003 54.0003 150.0003 77.9993 155.9993 77.9993 155.9993 72.0003 162.0003 72.0003 162.0003 75.0003 162.0003 77.9993 173.9993 77.9993 173.9993 72.0003 168.0003 72.0003 168.0003 59.9993 155.9993 59.9993 155.9993 54.0003"></polygon>
                <polygon id="Fill-41" points="72 0.0003 72 5.9993 66 5.9993 66 12.0003 54 12.0003 54 5.9993 48 5.9993 48 18.0003 54 18.0003 54 23.9993 72 23.9993 72 18.0003 78 18.0003 78 0.0003"></polygon>
                <polygon id="Fill-42" points="114 48 120 48 120 42 114 42"></polygon>
                <polygon id="Fill-43" points="60 42 54 42 54 36 60 36 60 30 54 30 54 24 48 24 48 48 60 48"></polygon>
                <path d="M90,24 L96,24 L96,27 L96,30 L90,30 L90,24 Z M78,30 L84,30 L84,54 L78,54 L78,66 L66,66 L66,78 L78,78 L78,72 L102,72 L102,66 L84,66 L84,60 L102,60 L102,48 L96,48 L96,54 L90,54 L90,48 L96,48 L96,42 L90,42 L90,36 L96,36 L96,42 L102,42 L102,36 L108,36 L108,42 L114,42 L114,36 L120,36 L120,30 L114,30 L114,18 L108,18 L108,21 L108,24 L102,24 L102,18 L108,18 L108,12 L102,12 L102,6 L90,6 L90,12 L84,12 L84,18 L78,18 L78,24 L78,30 Z" id="Fill-44"></path>
                <polygon id="Fill-45" points="48 66 66 66 66 60 72 60 72 54 66 54 66 48 60 48 60 60 54 60 54 54 48 54 48 48 36 48 36 54 42 54 42 60 48 60"></polygon>
                <polygon id="Fill-46" points="78.0003 138 78.0003 156 65.9993 156 65.9993 159 65.9993 162 78.0003 162 78.0003 168 83.9993 168 83.9993 174 90.0003 174 90.0003 156 83.9993 156 83.9993 150 90.0003 150 90.0003 138"></polygon>
                <polygon id="Fill-47" points="18 48 18 54 12 54 12 48 0 48 0 66 6 66 6 84 12 84 12 72 18 72 18 66 24 66 24 69 24 72 18 72 18 78 24 78 24 90 18 90 18 96 30 96 30 99 30 102 18 102 18 114 30 114 30 126 48 126 48 138 54 138 54 132 60 132 60 135 60 138 54 138 54 144 60 144 60 150 48 150 48 156 54 156 54 162 48 162 48 174 66 174 66 162 60 162 60 156 66 156 66 126 72 126 72 120 60 120 60 126 54 126 54 120 36 120 36 114 42 114 42 108 36 108 36 102 42 102 42 96 36 96 36 90 30 90 30 84 36 84 36 78 30 78 30 72 36 72 36 66 42 66 42 60 24 60 24 48"></polygon>
                <polygon id="Fill-48" points="72 30 66 30 66 33 66 36 72 36"></polygon>
                <polygon id="Fill-49" points="72 54 78 54 78 36 72 36"></polygon>
                <polygon id="Fill-50" points="60 42 66 42 66 36 60 36"></polygon>
                <polygon id="Fill-51" points="102 42 102 45 102 48 108 48 108 42"></polygon>
                <polygon id="Fill-52" points="108 54 114 54 114 48 108 48"></polygon>
                <polygon id="Fill-53" points="102 66 108 66 108 60 102 60 102 63"></polygon>
                <polygon id="Fill-54" points="102 78 108 78 108 72 102 72 102 75"></polygon>
                <polygon id="Fill-55" points="78 84 84 84 84 78 78 78 78 81"></polygon>
                <polygon id="Fill-56" points="108 114 114 114 114 102 108 102"></polygon>
                <polygon id="Fill-57" points="90 78 90 81 90 84 96 84 96 78"></polygon>
                <polygon id="Fill-58" points="90 102 84 102 84 108 102 108 102 102 96 102 96 96 90 96 90 99"></polygon>
                <polygon id="Fill-59" points="102 99 102 102 108 102 108 90 102 90 102 84 96 84 96 96 102 96"></polygon>
                <polygon id="Fill-60" points="84 102 84 96 90 96 90 90 78 90 78 102"></polygon>
                <polygon id="Fill-61" points="138 132 132 132 132 135 132 138 138 138"></polygon>
                <path d="M132.0003,0.0003 L132.0003,21.0003 L132.0003,41.9993 L173.9993,41.9993 L173.9993,0.0003 L132.0003,0.0003 Z M137.9993,5.9993 L168.0003,5.9993 L168.0003,21.0003 L168.0003,36.0003 L137.9993,36.0003 L137.9993,5.9993 Z" id="Fill-62"></path>
                <polygon id="Fill-63" points="162 12 144 12 144 21 144 30 162 30"></polygon>
                <polygon id="Fill-64" points="0 120 0 123 0 126 6 126 6 120"></polygon>
                <path d="M0,131.9997 L0,153.0007 L0,173.9997 L42,173.9997 L42,131.9997 L0,131.9997 Z M6,137.9997 L36,137.9997 L36,153.0007 L36,167.9997 L6,167.9997 L6,137.9997 Z" id="Fill-65"></path>
                <polygon id="Fill-66" points="12 153 12 162 30 162 30 144 12 144"></polygon>
                <polygon id="Fill-67" points="96 156 96 162 102 162 102 168 108 168 108 150 96 150"></polygon>
                <polygon id="Fill-68" points="114.0003 156 114.0003 162 114.0003 168 119.9993 168 119.9993 174 132.0003 174 132.0003 168 126.0003 168 126.0003 162 119.9993 162 119.9993 156"></polygon>
                <polygon id="Fill-69" points="168.0003 156 168.0003 159 168.0003 162 173.9993 162 173.9993 156"></polygon>
                <polygon id="Fill-70" points="162 174 168 174 168 162 162 162"></polygon>
            </g>
        </g>
    </g>
</svg>